# xmcd CD database file
#
# Track frame offsets:
#	150
#	5810
#	22727
#	36915
#	56155
#	73732
#	89940
#	107955
#	116755
#	137270
#	155460
#	173137
#	194535
#	212525
#	231122
#	246870
#	267845
#	296797
#	314192
#	339912
#
# Disc length: 4795 seconds
#
# Revision: 0
# Processed by: cddbd v1.5.1PL0 Copyright (c) Steve Scherf et al.
# Submitted via: CDex 1.51
#
DISCID=3112b914
DTITLE=JIN - The Rest Is History [EXPLICIT LYRICS] [FROM US] [IMPORT]
DYEAR=2004
DGENRE=Hip-Hop
TTITLE0=Intro/ The Signing (Skit)
TTITLE1=Here Now
TTITLE2=Get Your Handz Off
TTITLE3=Club Song
TTITLE4=The Come Thru (featuring Twista)
TTITLE5=So Afraid
TTITLE6=I Got a Love (featuring Kanye West)
TTITLE7=Chinese Beats (Skit)
TTITLE8=Learn Chinese (featuring Wyclef)
TTITLE9=The Good, The Bad and The Ugly
TTITLE10=Senorita
TTITLE11=Love Story
TTITLE12=Cold Outside (featuring Lyfe)
TTITLE13=C'mon
TTITLE14=Karaoke Night (featuring Styles P.)
TTITLE15=Same Cry (featuring L.T.)
TTITLE16=Thank You
TTITLE17=a Little Hungry
TTITLE18=Check The Clock
TTITLE19=データトラック
EXTD=YEAR: 2004
EXTT0=
EXTT1=
EXTT2=
EXTT3=
EXTT4=
EXTT5=
EXTT6=
EXTT7=
EXTT8=
EXTT9=
EXTT10=
EXTT11=
EXTT12=
EXTT13=
EXTT14=
EXTT15=
EXTT16=
EXTT17=
EXTT18=
EXTT19=
PLAYORDER=
